<?xml version="1.0" encoding="UTF-8" standalone="no"?>
<!-- Created with Inkscape (http://www.inkscape.org/) -->

<svg
   version="1.1"
   id="svg1"
   width="133.02193"
   height="132.19632"
   viewBox="0 0 133.02193 132.19632"
   xmlns="http://www.w3.org/2000/svg"
   xmlns:svg="http://www.w3.org/2000/svg">
  <defs
     id="defs1" />
  <g
     id="g1"
     transform="translate(-15.089023,-20.427839)">
    <path
       style="fill:#000000"
       d="m 89.759998,152.14898 c 8.164583,-0.9523 17.019582,-3.69038 21.777242,-6.73383 1.32817,-0.84961 1.69649,-1.27482 1.8173,-2.098 0.21079,-1.43616 -0.30843,-3.50393 -1.08835,-4.33428 -1.04726,-1.11499 -0.55116,-1.58134 0.62733,-0.58971 l 1.02922,0.86604 1.51863,-0.88196 c 1.93201,-1.12203 4.76584,-3.25854 7.50337,-5.657 1.88873,-1.6548 2.22535,-1.83596 2.82006,-1.51767 0.64839,0.347 0.61493,0.41479 -0.8387,1.69942 -2.73915,2.42071 -5.36971,4.4609 -7.8061,6.05422 -1.95533,1.27873 -2.43646,1.75798 -2.5968,2.58666 -0.10824,0.55942 -0.30364,1.26913 -0.43423,1.57712 -0.72651,1.71346 4.44887,-1.05876 9.25091,-4.95529 2.41408,-1.95887 7.54012,-7.05547 7.54012,-7.49682 0,-0.21162 0.252,-0.47402 0.56,-0.58312 1.06223,-0.37627 5.90416,-6.93056 8.23196,-11.14322 1.26155,-2.28304 1.88756,-4.26991 1.43371,-4.5504 -0.14723,-0.091 -0.0438,-0.55823 0.2299,-1.03829 1.15188,-2.02057 -0.86842,-5.12864 -3.52861,-5.42848 -1.21596,-0.13706 -1.5014,-0.30669 -1.82314,-1.08344 -0.44189,-1.06682 -0.79307,-1.16055 -1.23742,-0.33027 -0.29638,0.55379 -0.46896,0.51384 -2.76485,-0.64 -2.43399,-1.22325 -3.66155,-1.52698 -3.66155,-0.90596 0,0.4533 1.68514,1.42943 3.89325,2.25521 1.89195,0.70754 2.24628,1.18674 1.39803,1.89073 -0.37641,0.31238 -0.65443,0.25676 -1.41159,-0.28238 -1.30819,-0.93151 -4.26094,-2.26818 -4.57784,-2.07233 -0.14402,0.089 -0.26185,0.28866 -0.26185,0.44367 0,0.33101 4.76272,2.8804 5.3811,2.8804 0.29454,0 0.35044,0.2175 0.18505,0.72 -0.45398,1.3793 -0.30606,1.96842 0.60566,2.41217 l 0.89181,0.43407 -0.71335,1.17688 c -1.5471,2.55242 -4.82479,7.40035 -5.23169,7.73805 -0.51539,0.42774 -0.79563,-0.14867 -4.4347,-9.12117 -0.87167,-2.14921 -1.62552,-3.5603 -1.93576,-3.62347 -0.6502,-0.13239 -0.63957,-0.25314 0.11566,-1.31376 1.94728,-2.7347 4.88994,-10.642804 5.59214,-15.028301 0.46974,-2.933726 0.61531,-3.22915 1.47977,-3.003089 0.40748,0.10656 0.92257,-0.08002 1.36291,-0.493699 1.15757,-1.087483 10.16673,-4.725687 10.60839,-4.284029 0.42915,0.429152 -0.0306,0.701349 -3.10699,1.839691 -5.99915,2.219804 -8.18934,3.663678 -9.54712,6.293906 -1.54194,2.986968 -0.0529,6.918201 3.07246,8.111801 3.53909,1.35159 6.98406,-0.70104 6.97967,-4.158713 -0.003,-2.587757 -1.52547,-4.290513 -4.09435,-4.580063 -1.26232,-0.142282 -1.52846,-0.05171 -2.39538,0.815213 -0.78841,0.788406 -0.97528,1.242271 -0.97528,2.368692 0,0.766378 0.22014,1.707706 0.48919,2.091841 0.97345,1.389785 3.99081,1.202821 3.99081,-0.247282 0,-0.682241 -0.91452,-0.866225 -1.48249,-0.298251 -0.94644,0.946433 -2.22474,-0.981918 -1.52995,-2.307965 0.90833,-1.733625 3.20092,-1.292167 4.23425,0.815342 0.5632,1.148662 0.0288,2.780695 -1.26773,3.871656 -1.15792,0.97433 -2.3136,1.02787 -3.71701,0.17221 -3.0821,-1.879183 -3.02637,-6.088461 0.1123,-8.48244 1.2109,-0.9236 6.61493,-3.200154 8.48362,-3.573891 l 1.0256,-0.205122 -0.22093,2.20986 c -0.61304,6.131778 -2.54528,14.237223 -3.736,15.671953 -0.71217,0.85811 -0.0998,1.46312 1.37302,1.35645 1.59971,-0.11587 1.71574,-0.29548 2.95774,-4.57854 0.99612,-3.435162 1.69872,-7.729584 2.01562,-12.320003 0.21786,-3.155792 0.27558,-3.366197 0.94973,-3.461965 0.70382,-0.09998 0.71431,-0.05333 0.53962,2.4 -0.44449,6.242224 -1.6003,12.475208 -3.03259,16.353968 -0.34364,0.9306 -0.6248,1.90889 -0.6248,2.17397 0,0.66688 1.45793,2.1796 1.86073,1.93066 0.53519,-0.33077 2.69322,-7.42952 3.22139,-10.596633 0.5181,-3.106746 1.03748,-8.737547 1.03089,-11.176377 -0.003,-1.244993 0.0717,-3.226845 0.16688,-4.404115 0.15034,-1.8602 0.0905,-2.211095 -0.45671,-2.679656 -0.51328,-0.439482 -0.57858,-0.724283 -0.35323,-1.540453 0.16475,-0.596645 0.14467,-1.712163 -0.0497,-2.760344 -0.17938,-0.96748 -0.46675,-2.551055 -0.6386,-3.519055 -0.48895,-2.754167 -1.18168,-5.404657 -2.17937,-8.338612 -1.13236,-3.330005 -2.95614,-7.341387 -3.33777,-7.341387 -0.15598,0 -0.64973,0.288 -1.09722,0.64 -0.94732,0.745155 -1.62388,0.854703 -1.05651,0.171067 0.55577,-0.669665 0.11867,-2.837082 -0.73304,-3.634856 -0.38378,-0.359469 -1.10942,-0.809558 -1.61255,-1.000198 -0.76084,-0.28829 -0.84849,-0.426503 -0.52082,-0.821316 0.21668,-0.261083 0.80833,-0.474697 1.31478,-0.474697 0.50645,0 0.92082,-0.07915 0.92082,-0.175891 0,-0.689881 -4.37401,-6.925544 -5.71269,-8.144109 -0.29002,-0.264 -1.22394,-1.302303 -2.07537,-2.30734 -0.85143,-1.005038 -1.80911,-1.910198 -2.12819,-2.011467 -0.31907,-0.10127 -0.67157,-0.548456 -0.78333,-0.993747 -0.12674,-0.50498 -0.59024,-0.973216 -1.23181,-1.244398 C 125.74287,37.363919 124.704,36.568093 124,35.834544 c -1.09527,-1.141238 -7.83829,-5.862753 -9.97897,-6.987348 -1.23406,-0.648311 -1.70109,-0.463529 -1.70046,0.672803 4.9e-4,0.895222 0.21209,1.170723 1.52,1.979037 3.18936,1.971089 6.37728,4.167819 7.85168,5.410436 1.25198,1.055158 1.44068,1.342617 1.03165,1.571523 -0.3614,0.202252 -0.93806,-0.05924 -2.07383,-0.940423 -2.85335,-2.213735 -5.15499,-3.764738 -7.31664,-4.930449 -1.95006,-1.051608 -2.14945,-1.255468 -2.33312,-2.385436 -0.13366,-0.822288 -0.49271,-1.454498 -1.07346,-1.890123 -0.47994,-0.360011 -1.39782,-1.186863 -2.03974,-1.83745 -1.08878,-1.103493 -3.91201,-2.390196 -6.92711,-3.157067 -0.528,-0.134294 -2.328002,-0.602195 -4.000002,-1.03978 -2.462735,-0.644531 -8.35366,-1.50862 -12.4,-1.818848 -0.931803,-0.07144 -4.988197,-0.07144 -5.92,0 -4.046339,0.310228 -9.937264,1.174317 -12.399999,1.818848 -1.672,0.437585 -3.472,0.905486 -4,1.03978 -3.015099,0.766871 -5.838335,2.053574 -6.927117,3.157067 -0.641914,0.650587 -1.559796,1.477439 -2.039737,1.83745 -0.580747,0.435625 -0.939797,1.067835 -1.073456,1.890123 -0.183671,1.129968 -0.38306,1.333828 -2.333119,2.385436 -2.16165,1.165711 -4.463291,2.716714 -7.316639,4.930449 -1.135779,0.88118 -1.71243,1.142675 -2.073834,0.940423 -0.409033,-0.228906 -0.220326,-0.516365 1.03165,-1.571523 1.474403,-1.242617 4.662319,-3.439347 7.85168,-5.410436 1.307908,-0.808314 1.519507,-1.083815 1.52,-1.979037 6.25e-4,-1.136332 -0.466399,-1.321114 -1.700465,-0.672803 -2.140677,1.124595 -8.883696,5.84611 -9.978963,6.987348 -0.704,0.733549 -1.742875,1.529375 -2.308611,1.768502 -0.64157,0.271182 -1.10507,0.739418 -1.231812,1.244398 -0.111761,0.445291 -0.464261,0.892477 -0.783333,0.993747 -0.319072,0.101269 -1.276756,1.006429 -2.128187,2.011467 -0.851431,1.005037 -1.785348,2.04334 -2.075371,2.30734 -1.338679,1.218565 -5.712686,7.454228 -5.712686,8.144109 0,0.09674 0.414368,0.175891 0.920818,0.175891 0.50645,0 1.098101,0.213614 1.314781,0.474697 0.327666,0.394813 0.240021,0.533026 -0.520818,0.821316 -0.503129,0.19064 -1.228776,0.640729 -1.612549,1.000198 -0.851713,0.797774 -1.288819,2.965191 -0.733046,3.634856 0.567367,0.683636 -0.109193,0.574088 -1.056504,-0.171067 -0.447496,-0.352 -0.941246,-0.64 -1.097223,-0.64 -0.381627,0 -2.205408,4.011382 -3.337773,7.341387 -0.997689,2.933955 -1.690417,5.584445 -2.179367,8.338612 -0.17185,0.968 -0.45922,2.551575 -0.6386,3.519055 -0.194342,1.048181 -0.214417,2.163699 -0.04968,2.760344 0.225355,0.81617 0.16005,1.100971 -0.353228,1.540453 -0.54724,0.468561 -0.607045,0.819456 -0.456707,2.679656 0.09515,1.17727 0.170239,3.159122 0.166876,4.404115 -0.0066,2.43883 0.512788,8.069631 1.030891,11.176377 0.528171,3.167113 2.686202,10.265863 3.221392,10.596633 0.402799,0.24894 1.860733,-1.26378 1.860733,-1.93066 0,-0.26508 -0.28116,-1.24337 -0.624799,-2.17397 -1.432294,-3.87876 -2.588105,-10.111744 -3.032595,-16.353968 -0.174694,-2.453327 -0.164204,-2.499982 0.539618,-2.4 0.674152,0.09577 0.731873,0.306173 0.949735,3.461965 0.316902,4.590419 1.019493,8.884841 2.015619,12.320003 1.242003,4.28306 1.358031,4.46267 2.957739,4.57854 1.472784,0.10667 2.085187,-0.49834 1.373022,-1.35645 -1.190725,-1.43473 -3.122962,-9.540175 -3.736001,-15.671953 l -0.220936,-2.20986 1.025607,0.205122 c 1.868688,0.373737 7.272718,2.650291 8.48362,3.573891 3.138668,2.393979 3.194393,6.603257 0.112295,8.48244 -1.403408,0.85566 -2.559087,0.80212 -3.717012,-0.17221 -1.296539,-1.090961 -1.830929,-2.722994 -1.26773,-3.871656 1.033331,-2.107509 3.32592,-2.548967 4.234258,-0.815342 0.694786,1.326047 -0.583517,3.254398 -1.52995,2.307965 -0.567975,-0.567974 -1.482491,-0.38399 -1.482491,0.298251 0,1.450103 3.017359,1.637067 3.990803,0.247282 0.269058,-0.384135 0.489197,-1.325463 0.489197,-2.091841 0,-1.126421 -0.186873,-1.580286 -0.975279,-2.368692 -0.866921,-0.866921 -1.13306,-0.957495 -2.395383,-0.815213 -2.568884,0.28955 -4.091064,1.992306 -4.094352,4.580063 -0.0044,3.457673 3.440581,5.510303 6.97967,4.158713 3.125386,-1.1936 4.614397,-5.124833 3.072459,-8.111801 -1.35778,-2.630228 -3.547967,-4.074102 -9.547115,-6.293906 -3.076435,-1.138342 -3.536139,-1.410539 -3.106988,-1.839691 0.441659,-0.441658 9.450818,3.196546 10.60839,4.284029 0.440338,0.413676 0.955422,0.600259 1.36291,0.493699 0.864459,-0.226061 1.010029,0.06936 1.47977,3.003089 0.702194,4.385497 3.644854,12.293601 5.592137,15.028301 0.755228,1.06062 0.765858,1.18137 0.11566,1.31376 -0.310243,0.0632 -1.064089,1.47426 -1.935761,3.62347 -3.639067,8.9725 -3.919313,9.54891 -4.434701,9.12117 -0.406903,-0.3377 -3.684587,-5.18563 -5.231691,-7.73805 l -0.713344,-1.17688 0.891809,-0.43407 c 0.911716,-0.44375 1.059636,-1.03287 0.605659,-2.41217 -0.16539,-0.5025 -0.109491,-0.72 0.185047,-0.72 0.618385,0 5.381103,-2.54939 5.381103,-2.8804 0,-0.15501 -0.117835,-0.35466 -0.261856,-0.44367 -0.3169,-0.19585 -3.269651,1.14082 -4.577839,2.07233 -0.757155,0.53914 -1.035183,0.59476 -1.411584,0.28238 -0.848249,-0.70399 -0.493924,-1.18319 1.398027,-1.89073 2.208111,-0.82578 3.893252,-1.80191 3.893252,-2.25521 0,-0.62102 -1.227562,-0.31729 -3.661551,0.90596 -2.295888,1.15384 -2.468476,1.19379 -2.764855,0.64 -0.444349,-0.83028 -0.795522,-0.73655 -1.237412,0.33027 -0.32174,0.77675 -0.607183,0.94638 -1.823146,1.08344 -2.66019,0.29984 -4.680488,3.40791 -3.528604,5.42848 0.273677,0.48006 0.37713,0.9473 0.229896,1.03829 -0.453848,0.28049 0.172158,2.26736 1.433705,4.5504 2.327804,4.21266 7.169738,10.76695 8.231967,11.14322 0.308,0.1091 0.56,0.3715 0.56,0.58312 0,0.44135 5.126032,5.53795 7.540119,7.49682 4.802036,3.89653 9.977421,6.66875 9.250913,4.95529 -0.130592,-0.30799 -0.325998,-1.0177 -0.434236,-1.57712 -0.160334,-0.82868 -0.641466,-1.30793 -2.596796,-2.58666 -2.436395,-1.59332 -5.06695,-3.63351 -7.806105,-6.05422 -1.453629,-1.28463 -1.487084,-1.35242 -0.838698,-1.69942 0.594714,-0.31829 0.931329,-0.13713 2.820063,1.51767 2.737529,2.39846 5.571359,4.53497 7.503366,5.657 l 1.518626,0.88196 1.029229,-0.86604 c 1.17849,-0.99163 1.674585,-0.52528 0.627321,0.58971 -0.779913,0.83035 -1.299133,2.89812 -1.088348,4.33428 0.244612,1.66666 3.456182,3.50037 10.154546,5.79795 9.241464,3.16989 19.568097,4.22263 29.759999,3.03388 z m -15.84,-2.89994 c -5.99833,-0.79465 -10.410544,-1.89933 -15.439999,-3.86567 -2.242529,-0.87675 -2.324591,-0.94837 -1.883558,-1.64385 0.210488,-0.33193 1.169784,-0.11593 4.5551,1.02567 4.82375,1.62666 9.649585,2.68715 13.519698,2.97098 2.780501,0.20392 3.408759,0.46619 3.408759,1.42301 0,0.33045 -0.18,0.586 -0.4,0.5679 -0.22,-0.0181 -1.912,-0.23322 -3.76,-0.47804 z m 5.954237,0.005 c -0.373028,-0.97209 -0.180964,-1.09383 1.725763,-1.09383 1.056,0 1.92,0.13223 1.92,0.29383 0,1.00033 -0.449572,1.30617 -1.92,1.30617 -1.101355,0 -1.586084,-0.14217 -1.725763,-0.50617 z m 5.245763,-0.0801 c 0,-0.97213 0.618275,-1.23286 3.408759,-1.43751 3.870114,-0.28383 8.695948,-1.34432 13.519703,-2.97098 3.38531,-1.1416 4.34461,-1.3576 4.5551,-1.02567 0.44103,0.69548 0.35897,0.7671 -1.88356,1.64385 -4.920707,1.92383 -9.367958,3.05321 -14.640002,3.71783 -1.584,0.19969 -3.348,0.43614 -3.92,0.52543 -0.869052,0.13568 -1.04,0.0612 -1.04,-0.45295 z m -6.705257,-4.50614 c -0.180277,-0.33685 -0.701549,-1.79565 -1.158383,-3.24179 -1.872513,-5.92755 -4.06133,-9.38866 -6.69636,-10.58874 -1.571865,-0.71588 -2.727838,-0.71359 -4.782276,0.009 -2.28988,0.80594 -3.456767,2.35887 -3.636174,4.83916 -0.166099,2.29629 0.268251,3.49569 1.731041,4.78003 2.978075,2.61479 7.487409,0.66008 7.487409,-3.24564 0,-1.58176 -0.500504,-2.59965 -1.596641,-3.24716 -2.121047,-1.25293 -4.803358,0.0379 -4.803358,2.31156 0,1.29865 0.451475,1.95556 1.344,1.95556 0.624441,0 0.760766,-0.81232 0.267288,-1.5927 -0.39801,-0.6294 0.487278,-1.6073 1.455082,-1.6073 0.786566,0 2.054383,1.36091 2.052433,2.20315 -6.58e-4,0.28426 -0.286541,0.98485 -0.635296,1.55685 -0.556892,0.91336 -0.800267,1.03942 -1.998804,1.03528 -1.809722,-0.006 -2.841261,-0.56543 -3.54146,-1.91974 -0.86483,-1.67273 -0.545735,-3.41581 0.861378,-4.70533 0.618261,-0.5666 1.492093,-1.12253 1.941849,-1.23541 2.228476,-0.55931 5.179845,1.18767 6.669013,3.94755 0.979205,1.81477 3.086465,7.58206 3.097572,8.47764 0.0092,0.73969 -0.894734,0.726 -5.29709,-0.0802 -6.826365,-1.25016 -13.164143,-3.42357 -12.794241,-4.38752 0.620244,-1.61633 0.56697,-2.00258 -0.348136,-2.52411 l -0.913588,-0.52067 1.350013,-2.76373 c 1.47951,-3.02883 1.612152,-3.56372 0.883722,-3.56372 -0.301273,0 -0.988177,1.09565 -1.805579,2.88 -0.725622,1.584 -1.406803,2.87779 -1.513735,2.8751 -0.106932,-0.003 -0.410421,-0.14239 -0.674421,-0.31044 -0.406801,-0.25894 -0.272602,-0.69732 0.88,-2.87468 1.451978,-2.7429 1.647672,-3.52998 0.877667,-3.52998 -0.286144,0 -1.031029,1.10635 -1.831314,2.72 -1.084288,2.18628 -1.487792,2.72 -2.056412,2.72 -0.533863,0 -0.732274,0.2159 -0.808686,0.88 -0.0677,0.5884 -0.260309,0.84343 -0.581255,0.76965 -0.264,-0.0607 -0.740941,-0.16214 -1.059869,-0.22545 -0.734228,-0.14575 -3.818103,-2.23426 -7.010181,-4.74754 -2.903426,-2.28602 -3.169242,-1.89589 2.95005,-4.32965 6.776253,-2.69504 7.68,-3.1488 7.68,-3.856 0,-0.56561 0.224319,-0.49151 2,0.66066 3.999776,2.5953 11.661886,5.68291 15.439999,6.22188 1.886835,0.26917 2.817146,0.69037 2.53459,1.14756 -0.111834,0.18095 0.448649,1.64973 1.245518,3.26394 1.271571,2.57583 3.739892,9.26802 3.739892,10.13973 0,0.53626 -0.600189,0.34753 -0.945257,-0.29724 z M 63.381036,131.189 c 0.74929,-0.40101 0.835077,-1.97102 0.139252,-2.5485 -0.382422,-0.31739 -0.674465,-0.31746 -1.44,-3.6e-4 -1.087217,0.45034 -1.296535,1.53816 -0.457432,2.37726 0.589673,0.58967 0.917258,0.62164 1.75818,0.1716 z m -3.2,-1.6 c 0.74929,-0.40101 0.835077,-1.97102 0.139252,-2.5485 -0.382422,-0.31739 -0.674465,-0.31746 -1.44,-3.6e-4 -0.792311,0.32818 -0.960289,0.58222 -0.960289,1.45227 0,1.34498 0.942657,1.80216 2.261037,1.09659 z m -2.965037,-1.973 c 0.545112,-0.54512 0.479527,-2.15943 -0.09672,-2.38056 -0.970534,-0.37243 -2.020947,0.17047 -2.237503,1.15645 -0.115062,0.52387 -0.118035,1.1 -0.0066,1.2803 0.278844,0.45118 1.871692,0.41294 2.340826,-0.0562 z m 23.909391,17.29061 c -0.08522,-0.23464 -0.796006,-2.34058 -1.579524,-4.67987 -0.783518,-2.3393 -1.993485,-5.30798 -2.688815,-6.59708 l -1.264237,-2.34381 h 6.007184 6.007184 l -1.271724,2.35769 c -0.699449,1.29674 -1.956298,4.40183 -2.793,6.90021 -1.425569,4.25674 -2.047731,5.37975 -2.417068,4.36286 z m 2.714608,0.0582 c 0,-0.87171 2.468321,-7.5639 3.739892,-10.13973 0.79687,-1.61421 1.357352,-3.08299 1.245518,-3.26394 -0.282556,-0.45719 0.647755,-0.87839 2.53459,-1.14756 3.778113,-0.53897 11.440222,-3.62658 15.440002,-6.22188 1.77568,-1.15217 2,-1.22627 2,-0.66066 0,0.7072 0.90374,1.16096 7.68,3.856 6.11929,2.43376 5.85347,2.04363 2.95005,4.32965 -3.19208,2.51328 -6.27596,4.60179 -7.01018,4.74754 -0.31893,0.0633 -0.79587,0.16476 -1.05987,0.22545 -0.32095,0.0738 -0.51355,-0.18125 -0.58126,-0.76965 -0.0764,-0.6641 -0.27482,-0.88 -0.80868,-0.88 -0.56862,0 -0.97213,-0.53372 -2.05642,-2.72 -0.80028,-1.61365 -1.54517,-2.72 -1.83131,-2.72 -0.77,0 -0.57431,0.78708 0.87767,3.52998 1.1526,2.17736 1.2868,2.61574 0.88,2.87468 -0.264,0.16805 -0.56749,0.30774 -0.67442,0.31044 -0.10694,0.003 -0.78812,-1.2911 -1.51374,-2.8751 -0.8174,-1.78435 -1.5043,-2.88 -1.80558,-2.88 -0.72843,0 -0.59579,0.53489 0.88372,3.56372 l 1.35002,2.76373 -0.91359,0.52067 c -0.91511,0.52153 -0.96838,0.90778 -0.34814,2.52411 0.36991,0.96395 -5.967872,3.13736 -12.794237,4.38752 -4.402357,0.80624 -5.306263,0.81993 -5.29709,0.0802 0.01111,-0.89558 2.118366,-6.66287 3.097571,-8.47764 1.489169,-2.75988 4.440538,-4.50686 6.669014,-3.94755 0.449755,0.11288 1.323587,0.66881 1.941849,1.23541 1.407113,1.28952 1.726203,3.0326 0.861377,4.70533 -0.700199,1.35431 -1.731738,1.91348 -3.54146,1.91974 -1.198537,0.004 -1.441911,-0.12192 -1.998803,-1.03528 -0.348756,-0.572 -0.634639,-1.27259 -0.635297,-1.55685 -0.0019,-0.84224 1.265868,-2.20315 2.052434,-2.20315 0.967804,0 1.853091,0.9779 1.455081,1.6073 -0.493478,0.78038 -0.357153,1.5927 0.267289,1.5927 0.892525,0 1.344,-0.65691 1.344,-1.95556 0,-1.46192 -1.426625,-2.84444 -2.935179,-2.84444 -4.158949,0 -4.810549,6.1408 -0.827972,7.80296 1.825989,0.7621 3.381137,0.51289 4.85056,-0.77728 1.462793,-1.28434 1.897143,-2.48374 1.731043,-4.78003 -0.17941,-2.48029 -1.346296,-4.03322 -3.636176,-4.83916 -2.054437,-0.72307 -3.210411,-0.72536 -4.782276,-0.009 -2.63503,1.20008 -4.823847,4.66119 -6.69636,10.58874 -0.456834,1.44614 -0.978106,2.90494 -1.158382,3.24179 -0.345068,0.64477 -0.945258,0.8335 -0.945258,0.29724 z m 17.737142,-13.94764 c 0.8391,-0.8391 0.62979,-1.92692 -0.45743,-2.37726 -1.207305,-0.50009 -1.919712,-0.0164 -1.919712,1.3034 0,1.38822 1.420902,2.0301 2.377142,1.07386 z m 3.19669,-1.29138 c 0.31884,-0.12235 0.50617,-0.5817 0.50617,-1.24118 0,-0.86164 -0.16997,-1.11734 -0.96029,-1.4447 -1.2073,-0.50009 -1.91971,-0.0164 -1.91971,1.3034 0,1.22703 1.10376,1.86985 2.37383,1.38248 z m 3.49422,-2.96954 c -0.059,-1.23079 -0.55013,-1.6791 -1.70805,-1.55912 -0.61407,0.0636 -0.82397,0.29192 -0.90312,0.98225 -0.14102,1.22979 0.47373,1.8743 1.67586,1.75699 0.90187,-0.088 0.98277,-0.19007 0.93531,-1.18012 z m -73.226583,2.8454 C 34.50486,129.00867 34.563247,128 35.134176,128 c 0.150844,0 0.600899,0.34768 1.000123,0.77264 0.712488,0.75841 0.714257,0.77885 0.09606,1.1097 -0.497841,0.26644 -0.746946,0.20762 -1.188889,-0.28072 z m 91.879113,0.22762 c -0.51596,-0.37728 -0.49929,-0.45769 0.23866,-1.15096 0.78789,-0.74018 1.48076,-0.6976 1.48076,0.091 0,0.22634 -0.26206,0.64868 -0.58236,0.93855 -0.48067,0.435 -0.67921,0.4562 -1.13706,0.12141 z m -51.400582,-0.58888 c -5.11394,-0.58939 -14.079999,-3.66669 -14.079999,-4.8325 0,-0.31774 0.87636,-2.32594 1.947468,-4.46266 l 1.947468,-3.88496 -0.212797,-2.27012 c -0.310201,-3.30924 -0.695858,-4.52688 -1.627007,-5.13699 -1.56224,-1.02362 -5.582215,-5.06447 -7.136331,-7.17339 -4.110221,-5.577531 -6.067066,-12.266919 -5.702891,-19.495082 0.359526,-7.135896 3.11659,-13.615642 8.026788,-18.86483 6.27291,-6.705979 13.821655,-9.99983 22.917301,-9.99983 9.095646,0 16.644391,3.293851 22.917302,9.99983 4.9102,5.249188 7.66726,11.728934 8.02679,18.86483 0.36417,7.228163 -1.59267,13.917551 -5.70289,19.495082 -1.55412,2.10892 -5.57409,6.14977 -7.136334,7.17339 -0.93115,0.61011 -1.316807,1.82775 -1.627008,5.13699 l -0.212797,2.27012 1.947468,3.88496 c 1.071111,2.13672 1.947471,4.14492 1.947471,4.46266 0,1.24175 -8.951749,4.23061 -14.535632,4.85325 -3.486111,0.38873 -8.224375,0.38033 -11.70437,-0.0207 z m 7.36,-4.44036 c 1.255365,-1.25537 0.39382,-3.84 -1.28,-3.84 -0.943359,0 -1.92,1.13941 -1.92,2.24 0,1.10058 0.976641,2.24 1.92,2.24 0.352,0 0.928,-0.288 1.28,-0.64 z m -5.650801,-1.8781 c 0.221565,-1.40084 0.177421,-1.81243 -0.239057,-2.22891 -0.467736,-0.46773 -0.632771,-0.46559 -1.95747,0.0254 -0.795667,0.29489 -1.695519,0.4564 -1.99967,0.3589 -1.814104,-0.58152 -2.392517,-0.94282 -2.813913,-1.75771 -0.781441,-1.51114 -3.019089,-1.5301 -3.019089,-0.0256 0,0.27259 -0.228979,0.74864 -0.508842,1.05789 -1.097533,1.21276 0.452698,2.68884 1.970696,1.87643 1.040661,-0.55694 5.077839,0.71903 5.809865,1.83624 0.384434,0.58672 0.738565,0.74597 1.494762,0.67217 0.933174,-0.0911 1.006822,-0.19692 1.262718,-1.81481 z m 11.510033,1.12593 c 0.721385,-1.10097 4.768679,-2.3709 5.798914,-1.81953 1.517998,0.81241 3.06823,-0.66367 1.970696,-1.87643 -0.279863,-0.30925 -0.508842,-0.7853 -0.508842,-1.05789 0,-1.50452 -2.237647,-1.48556 -3.019089,0.0256 -0.421396,0.81489 -0.999809,1.17619 -2.813913,1.75771 -0.304151,0.0975 -1.192965,-0.0599 -1.975143,-0.34981 -1.208685,-0.44797 -1.501238,-0.46144 -1.949113,-0.0897 -0.422585,0.35071 -0.48365,0.75874 -0.308271,2.05981 0.275613,2.04467 0.314305,2.10247 1.407611,2.10247 0.596149,0 1.072257,-0.25632 1.39715,-0.75217 z m -1.859232,-13.05602 c 3.985133,-2.75504 8.037551,-5.68943 9.065806,-6.56464 l 1.065806,-0.90717 0.07001,-7.040003 c 0.06218,-6.25275 0.144822,-7.239932 0.739031,-8.827894 1.050098,-2.806277 1.576815,-3.657702 3.602149,-5.822797 1.83774,-1.964541 1.88812,-2.0654 1.72159,-3.446536 -0.0943,-0.782525 -0.47818,-2.070773 -0.85296,-2.862773 -0.91353,-1.930497 -1.1093,-5.778489 -0.40229,-7.907109 0.85156,-2.563807 0.55804,-3.498081 -1.7746,-5.64852 -2.579698,-2.378207 -6.176426,-4.767906 -8.528217,-5.66623 -4.164721,-1.590817 -15.807925,-1.590817 -19.972646,0 -2.351791,0.898324 -5.948518,3.288023 -8.528223,5.66623 -2.332638,2.150439 -2.62616,3.084713 -1.7746,5.64852 0.707014,2.12862 0.511241,5.976612 -0.402287,7.907109 -0.374781,0.792 -0.758615,2.080248 -0.852963,2.862773 -0.166522,1.381136 -0.116142,1.481995 1.72159,3.446536 2.02534,2.165095 2.552057,3.01652 3.602155,5.822797 0.59421,1.587962 0.676852,2.575144 0.739031,8.827894 l 0.07001,7.040003 1.065806,0.90717 c 1.028255,0.87521 5.080673,3.8096 9.065806,6.56464 l 1.92,1.32735 h 3.36 3.36 z m -12.43856,-4.3893 c -1.589083,-1.12062 -3.508487,-2.55511 -4.265341,-3.18777 l -1.376099,-1.15027 v -5.361381 c 0,-4.398704 -0.0983,-5.567528 -0.547488,-6.509475 -0.676754,-1.419166 -0.29045,-2.233617 1.059431,-2.233617 0.714258,0 1.097286,0.270574 1.698738,1.2 l 0.776546,1.2 h 9.812773 9.812773 l 0.776546,-1.2 c 0.601452,-0.929426 0.984481,-1.2 1.698738,-1.2 1.349881,0 1.736185,0.814451 1.059432,2.233617 -0.449333,0.94226 -0.547489,2.111441 -0.547489,6.521365 v 5.373271 l -2,1.59547 c -1.1,0.87751 -2.983648,2.28624 -4.185885,3.13051 l -2.185885,1.53504 -4.348773,0.0454 -4.348774,0.0454 z m 0.774511,-2.95232 c 0.538835,-1.00682 0.117525,-2.27501 -0.71458,-2.15097 -0.975012,0.14535 -1.335225,0.89367 -0.93422,1.94078 0.400651,1.04618 1.15025,1.14174 1.6488,0.21019 z m 3.810992,-0.0958 c 0.361354,-0.95043 0.108566,-2.00922 -0.539036,-2.25773 -0.705901,-0.27088 -1.367907,0.40597 -1.367907,1.39857 0,1.59094 1.390527,2.21744 1.906943,0.85916 z m 3.149057,0.38166 c 0.995089,-0.99509 -0.0079,-3.36584 -1.056,-2.496 -0.81429,0.6758 -0.446923,2.88 0.48,2.88 0.1056,0 0.3648,-0.1728 0.576,-0.384 z m 3.52,0 c 0.51981,-0.51981 0.486194,-2.01283 -0.05544,-2.46234 -1.019058,-0.84574 -2.033357,0.59237 -1.467503,2.08068 0.317086,0.834 0.919607,0.98499 1.522943,0.38166 z m 3.987736,-0.66676 C 90.026513,102.24038 89.55535,101.44 88.606912,101.44 c -0.753639,0 -1.110525,1.29899 -0.612533,2.2295 0.486561,0.90915 1.3188,0.71196 1.689355,-0.40026 z M 73.263938,97.779348 c 0.529743,-0.638301 0.295125,-2.122326 -0.402682,-2.547076 -0.462064,-0.281254 -0.671734,-0.227045 -1.04,0.268886 -1.138178,1.532748 0.246558,3.719432 1.442682,2.27819 z m 18.348883,-0.209823 c 0.408203,-0.648298 0.03692,-2.179827 -0.586434,-2.419031 -0.696641,-0.267326 -1.426389,0.482014 -1.426389,1.464685 0,1.508049 1.281579,2.115689 2.012823,0.954346 z m -14.32785,-0.305197 c 0.122785,-0.386861 -0.004,-0.979443 -0.309359,-1.445412 -0.426792,-0.651367 -0.627686,-0.730754 -1.146537,-0.453073 -0.613888,0.328543 -0.887495,1.869069 -0.415743,2.34082 0.475747,0.475748 1.669818,0.193547 1.871639,-0.442335 z m 3.611368,-0.491587 c 0.161844,-1.658502 -1.537356,-2.281891 -2.025723,-0.743182 -0.352123,1.10944 0.135637,1.937904 1.076851,1.829042 0.692009,-0.08004 0.870671,-0.284493 0.948872,-1.08586 z m 3.423659,0.507256 c 0.435795,-1.373069 -0.693894,-2.672001 -1.640559,-1.886339 -0.452591,0.375617 -0.604947,1.934166 -0.226108,2.313005 0.468988,0.468987 1.669489,0.194587 1.866667,-0.426666 z m 3.618689,-0.53874 c 0.07352,-0.758884 -0.06654,-1.107166 -0.549076,-1.365412 -0.542033,-0.290087 -0.73223,-0.217766 -1.165226,0.443071 -0.73747,1.125521 -0.347413,2.168126 0.763082,2.039685 0.698623,-0.0808 0.870347,-0.282518 0.95122,-1.117344 z m -9.378689,-7.68906 c -0.352,-0.09181 -1.036,-0.44792 -1.52,-0.791354 -1.347705,-0.956298 -1.210903,-2.603402 0.48,-5.779226 1.419936,-2.666899 3.027903,-4.40162 4.08,-4.40162 1.052097,0 2.660064,1.734721 4.08,4.40162 1.72483,3.239546 1.834022,4.817266 0.403876,5.83562 -0.557204,0.396765 -1.525169,0.706259 -2.32,0.74179 l -1.363876,0.06097 -0.09015,-3.76 c -0.08331,-3.474551 -0.137201,-3.76 -0.709845,-3.76 -0.572644,0 -0.626534,0.285449 -0.709845,3.76 -0.09011,3.75821 -0.09054,3.760023 -0.890155,3.809564 -0.44,0.02726 -1.088,-0.02555 -1.44,-0.117364 z m -8.923046,-5.679632 c -3.602248,-1.294643 -6.347583,-6.57152 -5.322909,-10.231296 0.950146,-3.39359 5.410268,-5.519053 8.998204,-4.288078 2.36119,0.810095 4.405647,3.151793 4.924906,5.640932 0.51663,2.476534 -1.44127,6.283963 -4.165641,8.100711 -1.661314,1.107848 -2.907782,1.326453 -4.43456,0.777731 z m 21.403046,0.249007 c -2.111002,-0.451669 -5.318382,-3.99375 -5.931813,-6.550817 -1.017263,-4.240429 2.557557,-8.590757 7.059332,-8.590757 2.983253,0 6.00056,2.097269 6.721419,4.671924 1.147624,4.098908 -2.25759,9.792733 -6.248938,10.44879 -0.528,0.08679 -1.248,0.09617 -1.6,0.02086 z M 61.456863,94.688486 c 0.54629,-1.020753 0.795838,-8.875587 0.327099,-10.295878 -0.763179,-2.312456 -3.332393,-3.564926 -5.797663,-2.826313 -1.839451,0.551113 -2.5463,1.64731 -2.5463,3.948857 0,1.760831 0.08451,1.987006 1.089845,2.916845 0.599415,0.5544 1.485416,1.306046 1.96889,1.670324 0.747784,0.563425 0.899067,0.945687 1.013138,2.56 0.191327,2.70762 0.184002,2.697676 1.986825,2.697676 1.296286,0 1.666781,-0.127054 1.958166,-0.671511 z m -5.692888,-6.537687 c -0.841442,-0.589369 -1.25691,-2.46893 -0.778057,-3.519898 0.190484,-0.418066 0.795087,-0.99218 1.343564,-1.275808 2.507758,-1.296812 4.986035,1.181028 3.79523,3.79456 -0.645725,1.417212 -2.996271,1.956855 -4.360737,1.001146 z m 49.866225,4.832289 c 0.16577,-1.932013 0.30329,-2.302123 1.07016,-2.88 0.48397,-0.3647 1.37038,-1.116691 1.96979,-1.671091 1.00534,-0.929839 1.08985,-1.156014 1.08985,-2.916845 0,-2.301547 -0.70685,-3.397744 -2.5463,-3.948857 -2.46527,-0.738613 -5.03449,0.513857 -5.79767,2.826313 -0.47261,1.432048 -0.21718,9.278878 0.33569,10.311913 0.31587,0.590209 0.60299,0.67395 2.02812,0.591511 l 1.66016,-0.09604 z m -1.5137,-4.71736 c -2.16074,-1.04625 -1.58533,-4.69227 0.82404,-5.221457 1.16301,-0.255439 2.79454,0.535337 3.27354,1.58663 0.47885,1.050968 0.0634,2.930529 -0.77806,3.519898 -0.79118,0.554168 -2.3042,0.606552 -3.31952,0.114929 z M 39.679999,128.01638 c 0,-0.40521 0.429405,-0.60681 7.158522,-3.3609 2.793187,-1.14319 5.264181,-2.33243 5.491098,-2.64276 0.392552,-0.53684 0.445049,-0.53484 1.08165,0.0413 0.628273,0.56857 0.634914,0.62804 0.108902,0.97508 -0.308095,0.20326 -1.208172,0.56628 -2.000172,0.8067 -0.792,0.24042 -3.456,1.25975 -5.92,2.26518 -5.38352,2.19673 -5.92,2.37031 -5.92,1.91542 z M 118.72,126.53201 c -2.376,-0.98034 -5.184,-2.06495 -6.24,-2.41024 -1.056,-0.34529 -2.249,-0.79295 -2.6511,-0.9948 l -0.7311,-0.367 0.66955,-0.65999 c 0.63641,-0.62731 0.6905,-0.63184 1.09258,-0.0915 0.23266,0.31266 2.70836,1.50381 5.50155,2.647 6.68509,2.73607 7.15852,2.95691 7.15852,3.33934 0,0.49837 -0.17901,0.44382 -4.8,-1.46281 z m -87.705815,-1.50674 c -0.982198,-1.2679 -2.76216,-3.87091 -3.955471,-5.78447 -1.690835,-2.71136 -2.073553,-3.54008 -1.734186,-3.7551 0.71722,-0.45442 0.813867,-0.36889 2.019568,1.7871 1.190998,2.1297 5.60351,8.24399 6.227988,8.62994 0.370941,0.22926 -0.09688,1.47128 -0.543344,1.44253 -0.125807,-0.008 -1.032357,-1.05211 -2.014555,-2.32 z m 98.596205,1.71415 c -0.23323,-0.4358 -0.22802,-0.68493 0.0175,-0.83668 0.62448,-0.38595 5.03699,-6.50024 6.22799,-8.62994 1.2057,-2.15599 1.30235,-2.24152 2.01957,-1.7871 0.33937,0.21502 -0.0434,1.04374 -1.73419,3.7551 -2.19904,3.52631 -5.55161,8.07752 -5.97002,8.10447 -0.12581,0.008 -0.3782,-0.26454 -0.56087,-0.60585 z m -90.719857,-2.41255 c 0.426423,-0.96422 1.417342,-3.37622 2.202042,-5.36 0.7847,-1.98378 1.700699,-4.21863 2.035553,-4.96634 l 0.608826,-1.35946 2.471325,2.75534 c 1.359228,1.51543 3.103512,3.27919 3.876186,3.91946 0.772674,0.64027 1.375763,1.3573 1.340198,1.59341 -0.03557,0.2361 -1.360664,0.92343 -2.944664,1.5274 -1.584,0.60396 -3.384,1.32876 -4,1.61066 -1.493644,0.68352 -5.448426,2.03266 -5.958439,2.03266 -0.283557,0 -0.172063,-0.52975 0.368973,-1.75313 z M 121.6,125.13431 c -1.32,-0.50044 -3.336,-1.27674 -4.48,-1.72512 -1.144,-0.44838 -2.8,-1.09599 -3.68,-1.43914 -0.88,-0.34314 -1.6291,-0.81878 -1.66467,-1.05697 -0.0356,-0.2382 0.56753,-0.95694 1.3402,-1.59721 0.77268,-0.64027 2.51696,-2.40403 3.87619,-3.91946 l 2.47132,-2.75534 0.60883,1.35946 c 0.33485,0.74771 1.25085,2.98256 2.03555,4.96634 0.7847,1.98378 1.77562,4.39578 2.20204,5.36 0.93656,2.11772 0.83026,2.1494 -2.70946,0.80744 z m -85.227907,-0.25002 c -0.09908,-0.16032 0.467175,-1.86486 1.258338,-3.78789 0.791164,-1.92302 2.109636,-5.13149 2.929939,-7.12992 1.4835,-3.61412 1.494522,-3.62973 2.065544,-2.92455 0.722642,0.89243 0.721988,1.16474 -0.0033,1.3544 -0.403604,0.10554 -1.325815,1.97046 -3.064605,6.19732 -2.525776,6.13996 -2.86506,6.80987 -3.185963,6.29064 z m 89.361577,-1.26381 c -0.36363,-0.84727 -1.54068,-3.68482 -2.61568,-6.30568 -1.35019,-3.29181 -2.13439,-4.81223 -2.53626,-4.91732 -0.72774,-0.19031 -0.7311,-0.46212 -0.0166,-1.34445 0.55719,-0.6881 0.59831,-0.61804 2.93738,5.00455 1.30475,3.13633 2.63136,6.37983 2.94803,7.20777 0.78091,2.04176 0.14272,2.35792 -0.71684,0.35513 z m -69.887467,-2.03114 c -5.381801,-3.54703 -10.332167,-8.95391 -13.77562,-15.046 -0.610821,-1.08066 -1.110584,-2.09739 -1.110584,-2.25941 0,-0.33767 10.919302,-5.737414 11.22281,-5.549836 0.109824,0.06788 0.76162,1.09226 1.448435,2.276406 1.222083,2.10702 6.19891,7.49949 8.394088,9.09512 1.021229,0.74232 1.072189,0.88036 1.230944,3.33438 l 0.165611,2.56 -1.818529,3.75816 c -1.000191,2.06699 -1.936371,3.83099 -2.080399,3.92001 -0.144029,0.089 -1.798569,-0.85096 -3.676756,-2.08883 z m 2.080843,-5.65199 c 1.66919,-2.63204 1.075321,-5.19566 -1.368911,-5.90933 -0.746975,-0.2181 -1.763749,-0.68982 -2.259497,-1.04826 -0.773453,-0.55923 -0.873195,-0.80184 -0.702876,-1.70972 0.273187,-1.45621 -0.03906,-2.23326 -1.12255,-2.79355 -1.381601,-0.71446 -2.412245,-0.58071 -3.606697,0.46803 -0.752174,0.66042 -1.28492,0.88983 -1.771135,0.76268 -0.559087,-0.14621 -0.695381,-0.0431 -0.695381,0.52608 0,0.38935 0.271527,1.09015 0.603394,1.55732 0.331867,0.46717 0.836272,1.40795 1.1209,2.09063 l 0.517504,1.24123 1.894432,-0.21433 c 1.675166,-0.18952 1.967584,-0.13581 2.526461,0.46407 0.529488,0.56834 0.604559,0.98136 0.462711,2.54569 -0.15389,1.69712 -0.09392,1.94268 0.658094,2.69469 0.530234,0.53024 1.179968,0.82742 1.809006,0.82742 0.820807,0 1.137688,-0.24614 1.934545,-1.50265 z M 55.691338,114.32 c 0.0062,-0.308 0.20463,-0.9089 0.440873,-1.33534 0.426119,-0.76917 0.431259,-0.7699 0.646389,-0.0921 0.230042,0.7248 -0.271762,1.98743 -0.78986,1.98743 -0.169808,0 -0.303639,-0.252 -0.297402,-0.56 z m -5.707339,-5.904 c -0.637012,-0.63702 -0.4353,-0.9205 0.496,-0.69708 1.151995,0.27636 1.278765,0.41434 0.710733,0.77358 -0.616119,0.38964 -0.749013,0.38122 -1.206733,-0.0765 z m 53.377901,14.87135 c -0.18298,-0.31205 -1.06616,-2.07935 -1.96262,-3.92735 l -1.629918,-3.36 0.169985,-2.56 c 0.162803,-2.45185 0.214993,-2.59272 1.235313,-3.33438 2.19518,-1.59563 7.17201,-6.9881 8.39409,-9.09512 0.68682,-1.184146 1.33861,-2.208531 1.44844,-2.276406 0.30351,-0.187578 11.22281,5.212166 11.22281,5.549836 0,0.4657 -2.06909,4.00424 -3.8355,6.55945 -2.34373,3.39032 -7.10033,8.10803 -10.42036,10.33517 -4.0619,2.72479 -4.21898,2.79646 -4.62224,2.1088 z m 5.6546,-6.67477 c 0.75202,-0.75201 0.81199,-0.99757 0.6581,-2.69469 -0.14185,-1.56433 -0.0668,-1.97735 0.46271,-2.54569 0.55887,-0.59988 0.85129,-0.65359 2.52646,-0.46407 l 1.89443,0.21433 0.5175,-1.24123 c 0.28463,-0.68268 0.78904,-1.62346 1.1209,-2.09063 0.33187,-0.46717 0.6034,-1.16797 0.6034,-1.55732 0,-0.56918 -0.1363,-0.67229 -0.69538,-0.52608 -0.48622,0.12715 -1.01897,-0.10226 -1.77114,-0.76268 -1.19445,-1.04874 -2.22509,-1.18249 -3.6067,-0.46803 -1.08349,0.56029 -1.39573,1.33734 -1.12255,2.79355 0.17032,0.90788 0.0706,1.15049 -0.70287,1.70972 -0.49575,0.35844 -1.51252,0.83016 -2.2595,1.04826 -2.44423,0.71367 -3.0381,3.27729 -1.36891,5.90933 0.79686,1.25651 1.11374,1.50265 1.93455,1.50265 0.62903,0 1.27877,-0.29718 1.809,-0.82742 z m -2.46297,-2.38467 c -0.19194,-0.35865 -0.2514,-0.95955 -0.13213,-1.33534 0.21513,-0.67781 0.22027,-0.67708 0.64639,0.0921 0.50631,0.91393 0.5806,1.89534 0.14347,1.89534 -0.16981,0 -0.46579,-0.29344 -0.65773,-0.65209 z m 5.45573,-5.73541 c -0.56803,-0.35924 -0.44126,-0.49722 0.71074,-0.77358 0.9313,-0.22342 1.13301,0.0601 0.496,0.69708 -0.45772,0.45772 -0.59062,0.46614 -1.20674,0.0765 z M 39.562795,101.52 c -0.687493,-1.33365 -2.352104,-7.292854 -2.793343,-10.000003 -0.509382,-3.125229 -0.504147,-10.671809 0.0096,-13.905093 0.854219,-5.375567 3.54276,-12.980808 4.585508,-12.971301 0.480936,0.0044 9.349954,4.260728 9.996846,4.797601 0.39992,0.331904 0.394772,0.536207 -0.03907,1.550534 -1.428049,3.338762 -2.682986,9.366793 -2.674798,12.848259 0.0061,2.583984 1.188729,8.979815 2.033836,10.999079 0.285221,0.681494 0.518583,1.485439 0.518583,1.786544 0,0.391451 -1.535274,1.292229 -5.387431,3.16092 -2.963086,1.4374 -5.479388,2.61346 -5.591782,2.61346 -0.112393,0 -0.408489,-0.396 -0.657991,-0.88 z m 4.398229,-9.959322 c 0.903797,-0.943361 2.27333,-4.652044 1.92564,-5.214618 -0.230898,-0.373601 -1.726665,0.944239 -1.726665,1.521271 0,0.217676 -0.432242,0.759482 -0.960539,1.204014 -0.766844,0.645257 -1.186279,0.771607 -2.08,0.626576 -0.966053,-0.156769 -1.119461,-0.09414 -1.119461,0.457052 0,0.351293 0.298452,1.018134 0.663226,1.481869 0.897637,1.141161 2.159447,1.112019 3.297799,-0.07616 z m -0.690168,-3.622867 c 0.401029,-0.54202 1.269143,-1.519643 1.929143,-2.172497 1.044709,-1.033397 1.2,-1.379717 1.2,-2.676162 0,-1.671404 -0.251702,-1.795396 -1.608421,-0.79233 l -0.942506,0.696825 -1.630721,-0.763789 c -1.500105,-0.702612 -1.699108,-0.725581 -2.484536,-0.286771 -0.651249,0.363845 -0.877741,0.765412 -0.954661,1.692596 -0.09322,1.123675 -0.04215,1.207887 0.675512,1.113843 0.801798,-0.105071 1.825333,0.51424 1.825333,1.104456 0,0.568564 -1.026826,1.506015 -1.649596,1.506015 -0.35918,0 -0.590404,0.229761 -0.590404,0.586667 0,0.834713 0.132349,0.899889 1.909576,0.940371 1.426603,0.03249 1.667946,-0.06619 2.321281,-0.949224 z m 2.145917,-6.860969 c 0.787718,-1.001421 0.842799,-2.362738 0.173979,-4.29984 -0.741777,-2.148406 -1.492679,-2.963671 -2.729695,-2.963671 -0.806855,0 -1.26745,0.253606 -1.953846,1.075798 -0.920543,1.102661 -1.867212,3.759381 -1.867212,5.240119 0,0.721596 0.136647,0.832239 1.04,0.842088 0.572,0.0062 1.4,0.217134 1.84,0.468661 1.311212,0.749557 2.738079,0.601371 3.496774,-0.363155 z M 117.36,99.780468 c -3.82187,-1.86065 -5.36,-2.766283 -5.36,-3.155896 0,-0.300529 0.23336,-1.104002 0.51858,-1.785496 0.84511,-2.019264 2.02776,-8.415095 2.03384,-10.999079 0.008,-3.481466 -1.24675,-9.509497 -2.6748,-12.848259 -0.43385,-1.014327 -0.439,-1.21863 -0.0391,-1.550534 0.6469,-0.536873 9.51591,-4.793216 9.99685,-4.797601 1.04275,-0.0095 3.73129,7.595734 4.58551,12.971301 0.51379,3.233284 0.51903,10.779864 0.01,13.905093 -0.6997,4.292922 -2.80985,10.889473 -3.47876,10.874973 -0.12748,-0.003 -2.64378,-1.17929 -5.59178,-2.614502 z m 5.17677,-8.143626 c 0.36478,-0.463735 0.66323,-1.130576 0.66323,-1.481869 0,-0.551188 -0.15341,-0.613821 -1.11946,-0.457052 -0.89372,0.145031 -1.31316,0.01868 -2.08,-0.626576 -0.5283,-0.444532 -0.96054,-0.986338 -0.96054,-1.204014 0,-0.577032 -1.49577,-1.894872 -1.72667,-1.521271 -0.34769,0.562574 1.02184,4.271257 1.92564,5.214618 1.13835,1.188183 2.40016,1.217325 3.2978,0.07616 z m 1.56548,-3.557639 c 0.0724,-0.509339 -0.0603,-0.719206 -0.4548,-0.719206 -0.66082,0 -1.72745,-0.895575 -1.72745,-1.450414 0,-0.63894 0.99183,-1.269282 1.82533,-1.160057 0.71766,0.09404 0.76873,0.0098 0.67551,-1.113843 -0.0769,-0.927184 -0.30341,-1.328751 -0.95466,-1.692596 -0.78543,-0.43881 -0.98443,-0.415841 -2.48453,0.286771 l -1.63073,0.763789 -0.9425,-0.696825 C 117.0517,81.293756 116.8,81.417748 116.8,83.089152 c 0,1.296445 0.15529,1.642765 1.2,2.676162 0.66,0.652854 1.5324,1.635659 1.93868,2.184012 0.67884,0.916248 0.87325,0.991015 2.4,0.923044 1.45187,-0.06464 1.67421,-0.164634 1.76357,-0.793167 z M 121.28,81.439997 c 0.44,-0.251527 1.268,-0.462424 1.84,-0.468661 0.90335,-0.0098 1.04,-0.120492 1.04,-0.842088 0,-1.480738 -0.94667,-4.137458 -1.86721,-5.240119 -0.6864,-0.822192 -1.147,-1.075798 -1.95385,-1.075798 -1.23702,0 -1.98792,0.815265 -2.7297,2.963671 -0.66882,1.937102 -0.61373,3.298419 0.17398,4.29984 0.7587,0.964526 2.18557,1.112712 3.49678,0.363155 z M 32.545668,88.105161 C 31.530104,87.484017 28.72387,86.296162 26.309593,85.465483 22.336034,84.098304 21.92,83.883551 21.92,83.199622 c 0,-0.680586 0.365069,-0.874754 3.679999,-1.957265 2.024,-0.66095 4.967379,-1.85549 6.540842,-2.654535 1.573463,-0.799044 2.890228,-1.420187 2.926145,-1.380316 0.03592,0.03987 -0.06432,1.368491 -0.22276,2.952491 -0.158434,1.584 -0.259207,4.208009 -0.223941,5.83113 0.03527,1.623121 -0.0016,3.016888 -0.08201,3.097258 -0.08037,0.08037 -0.977045,-0.36208 -1.99261,-0.983224 z M 128.60994,89.0768 c -0.0165,-0.152242 -0.0157,-1.572803 0.002,-3.156803 0.0176,-1.584 -0.0977,-4.176 -0.25609,-5.76 -0.15843,-1.584 -0.25868,-2.912621 -0.22276,-2.952491 0.0359,-0.03987 1.35268,0.581272 2.92615,1.380316 1.57346,0.799045 4.51684,1.993585 6.54084,2.654535 3.31493,1.082511 3.68,1.276679 3.68,1.957265 0,0.683942 -0.41611,0.898707 -4.39119,2.266409 -3.94637,1.357824 -5.05162,1.861554 -7.52881,3.431317 -0.396,0.250941 -0.73353,0.331694 -0.75006,0.179452 z M 17.951722,85.146073 c -0.550359,-0.348085 -0.270115,-3.52097 0.344541,-3.900849 0.655717,-0.405255 0.772056,-0.09441 0.744842,1.990125 -0.02629,2.013746 -0.264869,2.432201 -1.089383,1.910724 z M 144.2864,85.359997 c -0.14405,-0.34298 -0.11239,-4.149773 0.0353,-4.241034 0.50916,-0.314676 0.99492,0.535446 1.17506,2.056424 0.15006,1.267006 0.0882,1.757846 -0.24846,1.970987 -0.43461,0.275169 -0.89324,0.377028 -0.96187,0.213623 z M 22.146194,80.281415 c 0.06574,-0.19722 1.428242,-0.825855 3.027783,-1.396967 4.920714,-1.756927 7.368448,-3.027023 8.775486,-4.55348 1.784383,-1.935827 2.281769,-3.240161 2.011759,-5.275596 -0.822968,-6.203836 -10.035068,-6.090251 -10.040026,0.123794 -0.0016,2.028049 0.428108,3.015441 1.569165,3.605505 2.557259,1.32241 5.789638,-0.371149 5.789638,-3.033398 0,-0.932169 -1.688064,-2.551275 -2.659933,-2.551275 -1.128636,0 -2.424293,1.108212 -1.908747,1.632605 0.290288,0.295269 0.584741,0.309905 1.140489,0.05669 1.614862,-0.735781 2.51758,1.141316 1.188191,2.470705 -0.864875,0.864874 -2.103183,0.805907 -3.054545,-0.145455 -1.547943,-1.547943 -0.690505,-4.192057 1.680689,-5.182805 0.969669,-0.405153 1.220673,-0.387898 2.483553,0.170734 3.407714,1.507394 3.078729,5.806062 -0.64017,8.364731 -1.39169,0.957508 -7.672153,3.512794 -8.633857,3.512794 -0.64412,0 -0.601916,-1.125417 0.174004,-4.64 0.741978,-3.36084 1.931589,-7.150375 2.989447,-9.522957 0.411256,-0.922373 0.831396,-1.916587 0.933645,-2.209364 0.14695,-0.420776 0.458452,-0.495765 1.48657,-0.357866 0.715365,0.09595 1.302869,0.0475 1.305564,-0.107678 0.0027,-0.155174 0.122797,-0.467964 0.266892,-0.695089 0.202422,-0.319059 0.799525,-0.155349 2.626073,0.72 1.300244,0.623125 2.620142,1.132955 2.933107,1.132955 0.793076,0 0.714063,-0.87084 -0.102529,-1.130016 -0.369356,-0.117229 -1.600405,-0.647805 -2.735665,-1.179057 -1.945689,-0.910498 -2.034348,-0.998797 -1.545372,-1.539111 0.494864,-0.546818 0.620315,-0.515638 2.725851,0.677493 2.293945,1.299896 3.186743,1.536506 3.186743,0.844555 0,-0.453702 -3.480123,-2.473864 -4.261712,-2.473864 -0.752714,0 -0.911341,-0.493447 -0.470006,-1.462071 0.354759,-0.778612 0.321562,-0.919728 -0.315935,-1.34301 -0.391791,-0.26014 -0.712347,-0.649457 -0.712347,-0.865151 0,-0.383586 3.406414,-5.089852 5.143768,-7.106575 0.481773,-0.559243 0.974214,-0.919243 1.094312,-0.8 0.335072,0.33269 1.035619,2.056979 2.753294,6.776807 0.864691,2.376 1.814605,4.49979 2.110919,4.719534 0.499902,0.37072 0.490557,0.464723 -0.129575,1.303497 -1.133341,1.532926 -3.642783,6.369406 -4.647204,8.956617 -0.863676,2.224678 -1.258684,3.512353 -2.193136,7.149351 -0.243057,0.946006 -0.420836,1.137491 -0.931976,1.003825 -0.380454,-0.09949 -1.237813,0.22012 -2.156014,0.80373 -0.838413,0.532897 -2.748388,1.42116 -4.244388,1.973916 -1.496,0.552757 -3.192885,1.213029 -3.770856,1.467271 -1.252242,0.550845 -2.409842,0.604353 -2.242949,0.103676 z M 37.695999,66.175998 c 0.5669,-0.5669 0.474899,-2.072646 -0.141081,-2.30902 -1.245942,-0.478113 -2.428752,0.885144 -1.919473,2.212304 0.220714,0.575171 1.521065,0.636205 2.060554,0.09672 z m 1.868554,-3.296716 c 0.101458,-0.264393 0.0942,-0.840393 -0.01614,-1.28 -0.287567,-1.145759 -1.991974,-1.147207 -2.427357,-0.0021 -0.166707,0.438472 -0.219736,1.014472 -0.117844,1.28 0.249241,0.64951 2.312255,0.651172 2.561341,0.0021 z m 1.380828,-2.861671 c 0.611417,-0.736712 0.284648,-1.922015 -0.562995,-2.042177 -0.405688,-0.05751 -0.945688,0.06812 -1.2,0.279182 -0.475316,0.394477 -0.628564,1.632538 -0.249054,2.012049 0.379511,0.37951 1.617572,0.226262 2.012049,-0.249054 z M 138.72,80.157685 c -0.528,-0.242759 -2.184,-0.893822 -3.68,-1.446805 -1.496,-0.552983 -3.40598,-1.441431 -4.24439,-1.974328 -0.9182,-0.58361 -1.77556,-0.903221 -2.15601,-0.80373 -0.51114,0.133666 -0.68892,-0.05782 -0.93198,-1.003825 -0.93445,-3.636998 -1.32946,-4.924673 -2.19314,-7.149351 -1.00442,-2.587211 -3.51386,-7.423691 -4.6472,-8.956617 -0.62013,-0.838774 -0.62948,-0.932777 -0.12958,-1.303497 0.29632,-0.219744 1.24623,-2.343534 2.11092,-4.719534 1.71768,-4.719828 2.41823,-6.444117 2.7533,-6.776807 0.1201,-0.119243 0.61254,0.240757 1.09431,0.8 1.73735,2.016723 5.14377,6.722989 5.14377,7.106575 0,0.215694 -0.32056,0.605011 -0.71235,0.865151 -0.6375,0.423282 -0.67069,0.564398 -0.31593,1.34301 0.44133,0.968624 0.2827,1.462071 -0.47001,1.462071 -0.78159,0 -4.26171,2.020162 -4.26171,2.473864 0,0.691951 0.8928,0.455341 3.18674,-0.844555 2.10554,-1.193131 2.23099,-1.224311 2.72585,-0.677493 0.48898,0.540314 0.40032,0.628613 -1.54537,1.539111 -1.13526,0.531252 -2.36631,1.061828 -2.73567,1.179057 -0.81659,0.259176 -0.8956,1.130016 -0.10253,1.130016 0.31297,0 1.63287,-0.50983 2.93311,-1.132955 1.82655,-0.875349 2.42365,-1.039059 2.62607,-0.72 0.1441,0.227125 0.2642,0.539915 0.2669,0.695089 0.003,0.155174 0.5902,0.203629 1.30556,0.107678 1.02812,-0.137899 1.33962,-0.06291 1.48657,0.357866 0.10225,0.292777 0.52239,1.286991 0.93365,2.209364 1.05785,2.372582 2.24747,6.162117 2.98944,9.522957 0.77592,3.514583 0.81813,4.64 0.17401,4.64 -0.96171,0 -7.24217,-2.555286 -8.63386,-3.512794 -3.7189,-2.558669 -4.04788,-6.857337 -0.64017,-8.364731 1.26288,-0.558632 1.51388,-0.575887 2.48355,-0.170734 2.3712,0.990748 3.22864,3.634862 1.68069,5.182805 -0.95136,0.951362 -2.18967,1.010329 -3.05454,0.145455 -1.32939,-1.329389 -0.42667,-3.206486 1.18819,-2.470705 0.55575,0.253215 0.8502,0.238579 1.14049,-0.05669 0.51554,-0.524393 -0.78011,-1.632605 -1.90875,-1.632605 -0.97187,0 -2.65993,1.619106 -2.65993,2.551275 0,2.662249 3.23238,4.355808 5.78964,3.033398 1.14105,-0.590064 1.57078,-1.577456 1.56916,-3.605505 -0.002,-2.512506 -1.38099,-4.105263 -4.05203,-4.680173 -3.77744,-0.813051 -7.2741,3.63923 -5.74058,7.30946 1.20811,2.891398 3.92113,4.712806 10.53983,7.075995 2.84391,1.015412 3.89637,1.77608 2.40064,1.735084 C 140.016,80.608276 139.248,80.400445 138.72,80.157685 Z M 127.56455,66.079282 c 0.50444,-1.314536 -0.58586,-2.626083 -1.84963,-2.224976 -0.68547,0.217559 -0.82118,1.71143 -0.21092,2.321692 0.53949,0.539489 1.83984,0.478455 2.06055,-0.09672 z m -1.36777,-3.202063 c 0.1019,-0.265528 0.0489,-0.841528 -0.11784,-1.28 -0.43538,-1.145144 -2.13979,-1.143696 -2.42736,0.0021 -0.11033,0.439607 -0.11759,1.015607 -0.0161,1.28 0.24909,0.649109 2.3121,0.647447 2.56134,-0.0021 z m -1.7806,-3.384612 c 0.1155,-0.993607 -0.58722,-1.660543 -1.59857,-1.517173 -0.48634,0.06894 -0.77323,0.355835 -0.84218,0.842177 -0.14337,1.011351 0.52357,1.714066 1.51718,1.598565 0.6204,-0.07212 0.85145,-0.303169 0.92357,-0.923569 z M 18.062198,78.959997 c 0.08492,-0.396 0.31053,-1.8 0.501365,-3.12 0.190835,-1.32 0.700705,-3.768 1.133043,-5.439999 0.696662,-2.694233 1.255308,-4.318798 3.273681,-9.52 0.526115,-1.35576 1.215167,-1.762964 1.541995,-0.911263 0.09471,0.246806 -0.118569,1.087008 -0.473949,1.867116 -0.921188,2.022132 -2.882064,7.979967 -3.272014,9.941534 -0.582089,2.928087 -0.63861,3.247976 -0.71782,4.062612 -0.181681,1.868498 -0.641449,3.237931 -1.184702,3.528672 -0.849925,0.454866 -0.973284,0.391975 -0.801599,-0.408672 z m 126.197342,0.32 c -0.52135,-0.414773 -0.92601,-1.623913 -1.0977,-3.28 -0.10548,-1.01748 -0.20026,-1.567089 -0.72816,-4.222612 -0.38995,-1.961567 -2.35083,-7.919402 -3.27202,-9.941534 -0.35538,-0.780108 -0.56865,-1.62031 -0.47395,-1.867116 0.32683,-0.851701 1.01588,-0.444497 1.542,0.911263 2.01837,5.201202 2.57702,6.825767 3.27368,9.52 0.43234,1.671999 0.94221,4.119999 1.13304,5.439999 0.19084,1.32 0.41645,2.724 0.50137,3.12 0.17292,0.806404 -0.12873,0.91631 -0.87826,0.32 z M 47.101034,65.279435 c -4.609398,-2.235063 -5.182142,-2.597727 -4.903691,-3.105037 0.960456,-1.749859 4.022315,-5.828197 6.058795,-8.070201 2.506181,-2.759106 7.933266,-7.03375 11.016309,-8.676994 1.040958,-0.554825 1.936112,-0.95892 1.989231,-0.897989 0.346511,0.397471 4.977787,9.692723 4.975581,9.986292 -0.0015,0.200471 -1.023033,0.99397 -2.270057,1.763331 -4.2753,2.63768 -7.666812,5.990563 -10.31869,10.201161 -0.471098,0.748 -0.962735,1.353267 -1.092527,1.345038 -0.129793,-0.0082 -2.584521,-1.15375 -5.454951,-2.545601 z m 7.554965,-3.903437 c 0.2112,-0.2112 0.384,-0.853798 0.384,-1.427996 0,-1.37963 1.129717,-4.352808 1.928668,-5.075848 0.969365,-0.877264 1.176242,-0.265112 0.247103,0.731182 -1.097158,1.176456 -1.574337,2.163817 -1.340387,2.77348 0.323557,0.843178 0.897826,0.581857 2.953207,-1.34386 1.586826,-1.486721 1.971409,-2.038876 1.971409,-2.830404 0,-1.548255 -0.911885,-2.153239 -2.84484,-1.88739 -1.240169,0.170567 -1.815024,0.09477 -2.5431,-0.335314 -1.709678,-1.009931 -2.606459,0.194453 -1.454207,1.953011 0.431787,0.65899 0.44787,0.874666 0.09677,1.297713 -0.334547,0.403105 -0.774846,0.46317 -2.14256,0.292285 -1.708669,-0.213484 -1.730956,-0.205124 -2.994783,1.123434 -0.831203,0.873776 -1.239273,1.576122 -1.175293,2.022844 0.163788,1.143598 1.178667,1.018882 2.379798,-0.292447 0.812917,-0.887499 1.194757,-1.108145 1.459519,-0.843383 0.264762,0.264762 0.05249,0.697365 -0.811368,1.653554 -1.132517,1.253561 -1.400868,1.915543 -0.956606,2.359806 0.376248,0.376247 4.43893,0.233069 4.842667,-0.170667 z m 54.895481,5.104 c -2.65187,-4.210598 -6.04339,-7.563481 -10.318685,-10.201161 -1.247025,-0.769361 -2.26855,-1.56286 -2.270057,-1.763331 -0.0022,-0.293569 4.629072,-9.588821 4.975582,-9.986292 0.0531,-0.06093 0.94827,0.343164 1.98923,0.897989 3.08304,1.643244 8.51013,5.917888 11.01631,8.676994 2.03656,2.242093 5.09836,6.320377 6.05888,8.070355 0.27873,0.50783 -0.29889,0.870157 -4.97389,3.119999 -2.90908,1.399996 -5.36385,2.545447 -5.45503,2.545447 -0.0912,0 -0.55124,-0.612 -1.02234,-1.36 z m 3.98432,-5.417832 c 0.0564,-0.295808 -0.43252,-1.130135 -1.08655,-1.854061 -0.87803,-0.971877 -1.09532,-1.410038 -0.83056,-1.6748 0.26476,-0.264762 0.6466,-0.04412 1.45952,0.843383 1.20113,1.311329 2.21601,1.436045 2.3798,0.292447 0.064,-0.446722 -0.34409,-1.149068 -1.1753,-2.022844 -1.26382,-1.328558 -1.28611,-1.336918 -2.99478,-1.123434 -1.36771,0.170885 -1.80801,0.11082 -2.14256,-0.292285 -0.3511,-0.423047 -0.33501,-0.638723 0.0968,-1.297713 1.15226,-1.758558 0.25547,-2.962942 -1.4542,-1.953011 -0.72808,0.430085 -1.30293,0.505881 -2.5431,0.335314 -1.93296,-0.265849 -2.84484,0.339135 -2.84484,1.88739 0,0.791528 0.38458,1.343683 1.97141,2.830404 2.05538,1.925717 2.62965,2.187038 2.9532,1.34386 0.23395,-0.609663 -0.24323,-1.597024 -1.34038,-2.77348 -0.92914,-0.996294 -0.72227,-1.608446 0.2471,-0.731182 0.79895,0.72304 1.92867,3.696218 1.92867,5.075848 0,1.572943 0.48138,1.849809 3.03308,1.744471 1.79822,-0.07423 2.26037,-0.198574 2.34272,-0.630307 z M 43.199999,56.650855 c 0,-0.346029 -0.206209,-1.102029 -0.458242,-1.68 -0.501938,-1.151065 -3.638211,-9.351164 -3.92062,-10.250857 -0.09668,-0.308 -0.01692,-0.56 0.177246,-0.56 0.406724,0 0.784683,0.841301 2.94712,6.56 0.865172,2.288 1.809479,4.334581 2.098461,4.547958 0.486921,0.35953 0.486434,0.447461 -0.0066,1.2 -0.639567,0.976104 -0.837316,1.019299 -0.837316,0.182899 z M 119.2192,56.547956 c -0.54283,-0.822688 -0.54774,-0.922204 -0.0632,-1.28 0.28898,-0.213377 1.23329,-2.259958 2.09846,-4.547958 2.12979,-5.632343 2.54126,-6.56 2.9098,-6.56 0.45733,0 0.42627,0.124314 -0.79171,3.168544 -1.59081,3.976119 -3.07216,8.039084 -3.33659,9.151456 l -0.22821,0.96 z M 30.239999,55.359998 c 0.108774,-0.176 0.333273,-0.32 0.498886,-0.32 0.165613,0 0.301114,0.144 0.301114,0.32 0,0.176 -0.224498,0.32 -0.498885,0.32 -0.274387,0 -0.409889,-0.144 -0.301115,-0.32 z m 101.920001,0 c 0,-0.176 0.1355,-0.32 0.30111,-0.32 0.16561,0 0.39011,0.144 0.49889,0.32 0.10877,0.176 -0.0267,0.32 -0.30112,0.32 -0.27438,0 -0.49888,-0.144 -0.49888,-0.32 z m -87.53915,-2.16 C 42.845595,49.00432 40.634925,43.098406 40.783909,42.949422 c 0.216737,-0.216737 0.980161,0.03158 7.05609,2.295147 2.64,0.983522 4.98,1.789844 5.2,1.791826 0.22,0.002 0.4,-0.26899 0.4,-0.60216 0,-0.33317 -0.18,-0.673044 -0.4,-0.755276 -8.167785,-3.052966 -10.391163,-3.918694 -10.727733,-4.177108 -0.860881,-0.660975 -0.0229,-0.579727 2.069386,0.200641 1.198091,0.446856 4.050347,1.494353 6.338347,2.327769 2.288,0.833417 4.266751,1.605502 4.397224,1.715744 0.130473,0.110243 -0.805527,0.946576 -2.08,1.858518 -1.274473,0.911941 -3.465846,2.81399 -4.869717,4.226775 -1.403871,1.412785 -2.661938,2.5687 -2.795705,2.5687 -0.133767,0 -0.471695,-0.54 -0.750951,-1.2 z m 70.41351,-1.36682 c -1.4049,-1.413819 -3.59711,-3.316714 -4.87159,-4.228655 -1.27447,-0.911942 -2.21047,-1.748275 -2.08,-1.858518 0.13048,-0.110242 2.10923,-0.882327 4.39723,-1.715744 2.288,-0.833416 5.14025,-1.880913 6.33834,-2.327769 2.09229,-0.780368 2.93027,-0.861616 2.06939,-0.200641 -0.33657,0.258414 -2.55995,1.124142 -10.72773,4.177108 -0.22,0.08223 -0.4,0.422106 -0.4,0.755276 0,0.33317 0.18,0.604142 0.4,0.60216 0.22,-0.002 2.56,-0.808304 5.2,-1.791826 6.10124,-2.272995 6.83906,-2.512175 7.06195,-2.289289 0.24179,0.241799 -4.14009,11.217429 -4.53036,11.34752 -0.16658,0.05553 -1.45233,-1.055803 -2.85723,-2.469622 z M 67.715757,53.36095 c -0.253134,-0.396524 -1.44069,-2.697796 -2.639014,-5.113939 -1.453573,-2.930793 -2.072182,-4.499575 -1.858537,-4.71322 0.527261,-0.527261 5.578771,-2.170296 9.464455,-3.078373 3.161103,-0.738745 4.328644,-0.85004 8.917337,-0.85004 4.588693,0 5.756234,0.111295 8.917338,0.85004 3.879468,0.906624 8.936959,2.550878 9.462438,3.076357 0.210956,0.210956 -0.487038,1.942785 -2.070779,5.137917 -1.313949,2.650836 -2.537135,4.943776 -2.718192,5.095423 -0.192474,0.161209 -0.923432,0.0086 -1.76,-0.367438 -3.279747,-1.474275 -6.561264,-2.022139 -11.990805,-2.001918 -4.44662,0.01656 -5.498776,0.124458 -8,0.820401 -1.584,0.440734 -3.416399,1.040826 -4.071999,1.333538 -1.165404,0.520329 -1.202268,0.516118 -1.652242,-0.188748 z m 9.591025,-4.391244 c 1.151472,-0.499295 1.354857,-0.752229 1.711269,-2.128174 0.222467,-0.858843 0.452684,-1.727955 0.511594,-1.931359 0.25259,-0.872144 3.888116,-0.872144 4.140706,0 0.05891,0.203404 0.289128,1.072516 0.511594,1.931359 0.356412,1.375945 0.559798,1.628879 1.711269,2.128174 2.223477,0.964132 3.792839,1.082711 4.688713,0.354275 0.699445,-0.568719 0.832623,-0.58357 1.317907,-0.146969 0.665842,0.599047 1.220164,0.302888 1.220164,-0.651899 0,-1.203602 -0.608138,-1.485115 -3.20822,-1.485115 -2.795959,0 -3.265592,-0.312775 -4.403354,-2.932632 -0.800467,-1.843187 -1.415454,-2.187367 -3.908426,-2.187367 -2.492972,0 -3.107959,0.34418 -3.908426,2.187367 -1.137761,2.619857 -1.607394,2.932632 -4.403354,2.932632 -2.600082,0 -3.20822,0.281513 -3.20822,1.485115 0,0.954787 0.554323,1.250946 1.220165,0.651899 0.485283,-0.436601 0.618462,-0.42175 1.317906,0.146969 0.895874,0.728436 2.465236,0.609857 4.688713,-0.354275 z m -49.324639,3.481399 c -0.295005,-0.477328 2.165523,-3.992758 5.33188,-7.617816 2.32325,-2.659813 2.671872,-2.944321 3.02166,-2.465957 0.338403,0.462792 0.16848,0.773732 -1.178632,2.15676 -1.838198,1.887208 -5.221896,6.261368 -5.764064,7.451297 -0.390973,0.858092 -1.039397,1.076731 -1.410844,0.475716 z M 133.80701,51.975389 c -0.54217,-1.189929 -3.92587,-5.564089 -5.76406,-7.451297 -1.34712,-1.383028 -1.51704,-1.693968 -1.17864,-2.15676 0.34979,-0.478364 0.69841,-0.193856 3.02166,2.465957 3.16636,3.625058 5.62689,7.140488 5.33188,7.617816 -0.37144,0.601015 -1.01987,0.382376 -1.41084,-0.475716 z m -78.127011,-7.11715 c 0,-0.461699 -1.168934,-1.013188 -5.664083,-2.672249 -3.115245,-1.149768 -5.713536,-2.238849 -5.77398,-2.420179 -0.107986,-0.323959 6.61778,-4.989032 7.795991,-5.407395 0.33114,-0.117582 0.925504,-0.504895 1.32081,-0.860696 1.1584,-1.042636 1.372864,-0.320359 0.334617,1.12693 -0.538282,0.750352 -0.09909,1.07359 0.863073,0.635201 0.918484,-0.418489 1.08091,-0.237579 2.603834,2.900148 0.597291,1.230616 1.084365,1.84 1.470694,1.84 0.541221,0 0.546651,-0.07415 0.08614,-1.176306 -0.27032,-0.646969 -0.896484,-1.834969 -1.391474,-2.64 -0.494991,-0.805032 -0.839752,-1.643694 -0.766136,-1.863694 0.156974,-0.469114 1.360514,-0.54633 1.360514,-0.08729 0,0.171993 0.492388,1.343458 1.094195,2.603257 1.058161,2.21511 1.077742,2.325045 0.594602,3.3382 -0.689761,1.446444 -0.365051,2.132906 0.949003,2.006268 0.903972,-0.08712 1.054977,-0.231379 1.138541,-1.087694 0.05727,-0.586852 -0.09725,-1.14792 -0.380979,-1.383397 -0.262526,-0.217877 -0.414294,-0.565611 -0.337263,-0.772744 0.07703,-0.207132 -0.410837,-1.501574 -1.084152,-2.876537 l -1.22421,-2.499934 0.773169,-0.608175 c 0.620177,-0.487832 0.732536,-0.793176 0.567822,-1.543111 l -0.205346,-0.934936 3.617309,-1.15143 c 3.445929,-1.096878 8.214979,-2.15576 11.562137,-2.567165 l 1.544828,-0.189878 -0.220338,1.037282 c -0.428745,2.018394 -2.540059,6.398425 -3.742988,7.765025 -0.834615,0.948173 -1.717524,1.550612 -2.798901,1.909788 -1.49795,0.497539 -1.650775,0.493171 -2.953558,-0.08442 -1.671338,-0.740987 -2.156319,-1.291579 -2.364656,-2.684562 -0.230138,-1.538741 0.777384,-3.010989 2.391494,-3.494588 1.109681,-0.332469 1.406593,-0.302192 2.335304,0.238131 1.986132,1.155532 1.307618,3.82551 -0.907715,3.57189 -0.854974,-0.09788 -0.903261,-0.18383 -0.822492,-1.463986 0.06255,-0.991371 -0.03525,-1.36 -0.360818,-1.36 -1.243966,0 -1.71134,2.385894 -0.688726,3.51587 0.715805,0.790955 3.195131,0.886619 4.228046,0.163137 1.86432,-1.30582 1.403338,-4.898999 -0.743596,-5.796045 -4.614231,-1.927949 -8.66436,2.696447 -5.983146,6.831494 1.431415,2.20757 4.608744,2.953571 7.32507,1.719843 2.22348,-1.009882 3.914523,-3.577112 5.819182,-8.834299 0.446348,-1.232 1.006537,-2.450857 1.244862,-2.708571 1.511347,-1.634302 -0.889283,5.143256 -3.190833,9.00849 -0.491219,0.824956 -0.848738,1.74698 -0.794487,2.048942 0.08047,0.447897 -0.399707,0.657383 -2.606942,1.137323 -5.181533,1.126671 -11.312865,3.492965 -14.286687,5.51373 -1.463314,0.994347 -1.727731,1.033882 -1.727731,0.258326 z m 2.90098,-1.873424 c 0.42711,-1.123383 0.172364,-1.704816 -0.746937,-1.704816 -0.938702,0 -1.514043,0.561391 -1.514043,1.477333 0,1.304911 1.783133,1.484317 2.26098,0.227483 z m 5.99502,-2.408816 c 0.587147,-0.587148 0.457251,-1.79428 -0.232819,-2.163594 -0.825203,-0.441635 -1.454998,-0.156062 -1.9235,0.872188 -0.330099,0.724489 -0.303952,0.910118 0.177818,1.262396 0.706958,0.516941 1.479246,0.528265 1.978501,0.02901 z m 41.216271,4.023914 c -2.97383,-2.020765 -9.105158,-4.387059 -14.286691,-5.51373 -2.207234,-0.47994 -2.687412,-0.689426 -2.606942,-1.137323 0.05425,-0.301962 -0.303267,-1.223986 -0.794487,-2.048942 -1.638631,-2.751926 -3.624152,-7.598882 -3.624152,-8.847104 0,-1.107002 0.787126,0.08772 1.678182,2.547185 1.904658,5.257187 3.595701,7.824417 5.819181,8.834299 2.716326,1.233728 5.893655,0.487727 7.32507,-1.719843 2.681219,-4.135047 -1.368915,-8.759443 -5.983146,-6.831494 -2.146934,0.897046 -2.607916,4.490225 -0.743596,5.796045 1.032915,0.723482 3.512241,0.627818 4.228046,-0.163137 1.022615,-1.129976 0.55524,-3.51587 -0.688726,-3.51587 -0.325566,0 -0.423365,0.368629 -0.360817,1.36 0.08226,1.30386 0.0455,1.363943 -0.890546,1.455527 -2.183479,0.213635 -2.804126,-2.420261 -0.839661,-3.563345 0.928739,-0.540415 1.225589,-0.570696 2.335303,-0.238217 1.614111,0.483599 2.621632,1.955847 2.391495,3.494588 -0.208337,1.392983 -0.693319,1.943575 -2.364656,2.684562 -1.302784,0.577588 -1.455608,0.581956 -2.953558,0.08442 -1.081378,-0.359176 -1.964286,-0.961615 -2.798902,-1.909788 -1.202929,-1.3666 -3.314243,-5.746631 -3.742988,-7.765025 l -0.220338,-1.037282 1.544828,0.189878 c 3.347158,0.411405 8.116208,1.470287 11.562138,2.567165 l 3.617313,1.15143 -0.20535,0.934936 c -0.16471,0.749935 -0.0524,1.055279 0.56782,1.543111 l 0.77317,0.608175 -1.22421,2.499934 c -0.67331,1.374963 -1.16118,2.669405 -1.08415,2.876537 0.077,0.207133 -0.0747,0.554867 -0.33726,0.772744 -0.28374,0.235477 -0.43825,0.796545 -0.38098,1.383397 0.0836,0.856315 0.23457,1.000577 1.13854,1.087694 1.31405,0.126638 1.63876,-0.559824 0.949,-2.006268 -0.48314,-1.013155 -0.46356,-1.12309 0.5946,-3.3382 0.60181,-1.259799 1.0942,-2.431264 1.0942,-2.603257 0,-0.459043 1.20354,-0.381827 1.36051,0.08729 0.0736,0.22 -0.27114,1.058662 -0.76613,1.863694 -0.49499,0.805031 -1.12116,1.993031 -1.39148,2.64 -0.46051,1.102156 -0.45508,1.176306 0.0861,1.176306 0.38633,0 0.8734,-0.609384 1.47069,-1.84 1.52293,-3.137727 1.68536,-3.318637 2.60384,-2.900148 1.27076,0.578998 1.43323,0.02215 0.40978,-1.404504 -0.59569,-0.83038 -0.0251,-1.089375 0.78791,-0.357627 0.39531,0.355801 0.98967,0.743114 1.32081,0.860696 1.17821,0.418363 7.90398,5.083436 7.79599,5.407395 -0.0604,0.18133 -2.65873,1.270411 -5.77398,2.420179 -4.49515,1.659061 -5.66408,2.21055 -5.66408,2.672249 0,0.775556 -0.26442,0.736021 -1.72773,-0.258326 z m 0.58156,-0.954151 c 0.59655,-0.228919 0.67079,-1.433143 0.12217,-1.981763 -0.5152,-0.515202 -1.83589,-0.488767 -2.03911,0.04082 -0.24453,0.637237 0.42126,2.135183 0.94902,2.135183 0.25396,0 0.68952,-0.08741 0.96792,-0.194236 z m -5.77133,-3.098773 c 0.48177,-0.352278 0.50792,-0.537907 0.17782,-1.262396 -0.21286,-0.467163 -0.59394,-0.928792 -0.846848,-1.025843 -0.725028,-0.27822 -1.693474,0.412888 -1.693474,1.208507 0,1.357199 1.220315,1.914919 2.362502,1.079732 z M 37.588269,41.20482 c -0.202245,-0.527041 0.331477,-1.848737 0.742989,-1.839921 0.125808,0.0027 0.444741,0.142251 0.708741,0.310125 0.405508,0.257857 0.345435,0.440195 -0.387089,1.174917 -0.731365,0.733559 -0.898012,0.789108 -1.064641,0.354879 z m 86.879871,-0.417438 c -0.65019,-0.692102 -0.69728,-0.867945 -0.29976,-1.119338 0.72161,-0.456339 0.93411,-0.376576 1.3338,0.500635 0.56321,1.236114 -0.088,1.625742 -1.03404,0.618703 z M 75.839998,37.948113 c 0,-0.160537 0.385667,-0.949976 0.857038,-1.754309 0.47137,-0.804333 1.535317,-3.264985 2.364326,-5.468115 1.500343,-3.987232 1.512041,-4.00569 2.538636,-4.00569 1.026595,0 1.038293,0.01846 2.538636,4.00569 0.829009,2.20313 1.892956,4.663782 2.364327,5.468115 0.47137,0.804333 0.857037,1.593772 0.857037,1.754309 0,0.165037 -2.503202,0.291886 -5.76,0.291886 -3.256798,0 -5.76,-0.126849 -5.76,-0.291886 z M 58.399996,27.839994 c -0.370096,-0.598828 0.09989,-0.835611 4.000003,-2.015254 5.435165,-1.643939 7.855346,-2.150336 13.054909,-2.731597 2.242898,-0.250735 2.33117,-0.235144 2.24,0.395643 -0.08593,0.594534 -0.458225,0.69376 -3.93491,1.048749 -3.261599,0.333027 -10.047069,1.959723 -14.603884,3.501021 -0.288137,0.09746 -0.62839,0.0081 -0.756118,-0.198562 z M 103.36,27.864581 c -1.3251,-0.785553 -10.705216,-3.019253 -14.080002,-3.352889 -3.330094,-0.329218 -3.689032,-0.426426 -3.774997,-1.022353 -0.09083,-0.629651 4.29e-4,-0.647683 2.08,-0.411007 5.577277,0.63475 8.960144,1.361487 14.390999,3.091604 1.82819,0.582408 2.824,1.062143 2.824,1.360471 0,0.551306 -0.77166,0.730382 -1.44,0.334174 z M 79.436323,23.359999 c 0.07081,-0.367706 0.576995,-0.48 2.163675,-0.48 1.58668,0 2.092861,0.112294 2.163675,0.48 0.07511,0.39002 -0.330489,0.48 -2.163675,0.48 -1.833186,0 -2.238785,-0.08998 -2.163675,-0.48 z M 39.497142,109.25714 c 0.276571,-0.27657 0.502857,-0.83717 0.502857,-1.24576 0,-0.7895 -0.53537,-1.13138 -1.771672,-1.13138 -0.618836,0 -0.799419,0.2137 -0.976015,1.15504 -0.154579,0.82398 -0.08995,1.23531 0.2255,1.4351 0.674608,0.42726 1.462139,0.34419 2.01933,-0.213 z m 86.225038,0.213 c 0.31545,-0.19979 0.38008,-0.61112 0.2255,-1.4351 -0.17659,-0.94134 -0.35717,-1.15504 -0.97601,-1.15504 -1.2363,0 -1.77167,0.34188 -1.77167,1.13138 0,1.35424 1.40456,2.1666 2.52218,1.45876 z M 38.015999,106.176 c 0.967457,-0.96746 0.108346,-2.64039 -1.253321,-2.44057 -0.764182,0.11214 -1.439836,1.52922 -1.122907,2.35512 0.217024,0.56556 1.837836,0.62384 2.376228,0.0855 z m 89.544231,-0.0855 c 0.31692,-0.8259 -0.35873,-2.24298 -1.12291,-2.35512 -1.36167,-0.19982 -2.22078,1.47311 -1.25332,2.44057 0.53839,0.53839 2.1592,0.48011 2.37623,-0.0855 z M 36.6906,102.52768 c 0.736387,-1.12387 0.248613,-1.88768 -1.205476,-1.88768 -1.000055,0 -1.093257,0.0852 -1.188863,1.08644 -0.16667,1.74552 1.426336,2.2786 2.394339,0.80124 z m 91.89314,0.55386 c 0.25483,-0.16157 0.38238,-0.70171 0.32,-1.3551 -0.0956,-1.00127 -0.18881,-1.08644 -1.18887,-1.08644 -1.45409,0 -1.94186,0.76381 -1.20547,1.88768 0.55232,0.84295 1.30246,1.04324 2.07434,0.55386 z"
       id="path1" />
  </g>
</svg>
